# xmcd CD database file
#
# Track frame offsets:
#	150
#	15385
#	29630
#	42451
#	56358
#	74995
#	84018
#	101986
#	118175
#	136204
#	144773
#	160698
#	172436
#	193801
#	210755
#
# Disc length: 3096 seconds
#
# Revision: 0
# Processed by: cddbd v1.5.2PL0 Copyright (c) Steve Scherf et al.
# Submitted via: CDex 1.70beta2
#
DISCID=d50c160f
DTITLE=Pere Soto and Django's Castle - Swing Gitane
DYEAR=1900
DGENRE=Jazz
TTITLE0=Dancing with Mr. Joan Martí
TTITLE1=J'attendrai
TTITLE2=I Will see you in my dreams
TTITLE3=L'indifference
TTITLE4=Lentement mademisele
TTITLE5=Limehouse Blues
TTITLE6=Lulu
TTITLE7=Swing gitane
TTITLE8=Ojos Negros
TTITLE9=Moppin' the britge
TTITLE10=Blues de l'escamot musical
TTITLE11=Quien tiene silla no va a Sevilla
TTITLE12=Somethin is too far
TTITLE13=Piel oscura
TTITLE14=Tendresa absoluta
EXTD=
EXTT0=
EXTT1=
EXTT2=
EXTT3=
EXTT4=
EXTT5=
EXTT6=
EXTT7=
EXTT8=
EXTT9=
EXTT10=
EXTT11=
EXTT12=
EXTT13=
EXTT14=
PLAYORDER=
